<svg xmlns="http://www.w3.org/2000/svg" width="23" height="23" viewBox="0 0 23 23">
    <g fill="#231F20" fill-rule="nonzero" opacity=".3">
        <path d="M11.487 0C5.153 0 0 5.153 0 11.487c0 6.334 5.153 11.488 11.487 11.488 6.334 0 11.488-5.154 11.488-11.488S17.82 0 11.487 0zm0 21.66c-5.61 0-10.173-4.563-10.173-10.173S5.878 1.314 11.487 1.314c5.61 0 10.173 4.564 10.173 10.173 0 5.61-4.563 10.173-10.173 10.173z"/>
        <path d="M15.67 5.865H7.305c-.765 0-1.387.622-1.387 1.387v8.47c0 .765.622 1.388 1.387 1.388h8.367c.765 0 1.387-.623 1.387-1.388v-8.47c0-.765-.622-1.387-1.387-1.387zm.074 9.857c0 .04-.033.073-.073.073H7.304a.073.073 0 0 1-.073-.073v-8.47c0-.04.033-.073.073-.073h8.367c.04 0 .073.033.073.073v8.47z"/>
        <path d="M13.404 8.164h1.505v1.381h-1.505z"/>
        <circle cx="11.487" cy="12.044" r="1.484"/>
        <path d="M13.854 12.037a2.367 2.367 0 1 1-4.734 0l.004-1.055H8.065v3.926h6.845v-3.926h-1.05l-.006 1.055z"/>
    </g>
</svg>
