<svg xmlns="http://www.w3.org/2000/svg" width="23" height="23" viewBox="0 0 23 23">
    <g fill="none" fill-rule="evenodd" opacity=".7">
        <g fill-rule="nonzero">
            <path fill="#555" d="M16.243 15.91l-3.233-1.554-.024-7.044c0-.165.171-.273.32-.202l3.064 1.474a.223.223 0 0 1 .127.2v6.967c0 .13-.136.216-.254.16z"/>
            <path fill="#231F20" d="M13.01 14.356l-3.498-1.682L12.88 7.13a.223.223 0 0 1 .287-.086l3.108 1.495a.223.223 0 0 1 .093.317l-3.358 5.501z"/>
            <path fill="#555" d="M13.01 14.356l-3.498-1.682-3.207-5.222c-.09-.146.066-.318.22-.244l2.987 1.436 3.498 5.712z"/>
            <path fill="#231F20" d="M9.258 15.91L6.1 14.393a.177.177 0 0 1-.1-.16V7.229c0-.126.132-.209.245-.154l3.267 1.57v7.107c0 .13-.136.216-.254.16z"/>
        </g>
        <circle cx="11.5" cy="11.5" r="10.9" stroke="#231F20" stroke-width="1.2"/>
    </g>
</svg>
