<svg xmlns="http://www.w3.org/2000/svg" width="23" height="23" viewBox="0 0 23 23">
    <g fill="#231F20" fill-rule="nonzero" opacity=".3">
        <path d="M16.431 9.214c0-.116-.002-.231-.007-.345.497-.37.927-.834 1.268-1.364a4.869 4.869 0 0 1-1.46.4c.526-.323.928-.84 1.118-1.46a4.88 4.88 0 0 1-1.613.622 2.528 2.528 0 0 0-1.854-.875c-1.403-.023-2.54 1.163-2.54 2.648 0 .212.021.416.065.614C9.295 9.318 7.423 8.218 6.17 6.56a2.814 2.814 0 0 0-.344 1.36c0 .94.449 1.777 1.13 2.27a2.432 2.432 0 0 1-1.15-.352v.034c0 1.315.875 2.417 2.038 2.675a2.406 2.406 0 0 1-1.147.038c.323 1.078 1.262 1.865 2.373 1.891a4.904 4.904 0 0 1-3.761 1.11 6.855 6.855 0 0 0 3.895 1.222c4.672 0 7.227-4.066 7.227-7.594z"/>
        <path d="M23 11.5C23 5.149 17.851 0 11.5 0S0 5.149 0 11.5 5.149 23 11.5 23 23 17.851 23 11.5zm-21.955 0c0-5.774 4.68-10.455 10.455-10.455 5.774 0 10.455 4.68 10.455 10.455 0 5.774-4.68 10.455-10.455 10.455-5.774 0-10.455-4.68-10.455-10.455z"/>
    </g>
</svg>
